HIERARCHY
ROOT Hips
{
	OFFSET 0.00000 0.00000 0.00000
	CHANNELS 6 Xposition Yposition Zposition Zrotation Yrotation Xrotation 
	JOINT LHipJoint
	{
		OFFSET 0 0 0
		CHANNELS 3 Zrotation Yrotation Xrotation
		JOINT LeftHip
		{
			OFFSET 1.28858 -1.83292 1.03970
			CHANNELS 3 Zrotation Yrotation Xrotation
			JOINT LeftKnee
			{
				OFFSET 2.47846 -6.80952 0.00000
				CHANNELS 3 Zrotation Yrotation Xrotation
				JOINT LeftAnkle
				{
					OFFSET 2.75274 -7.56311 0.00000
					CHANNELS 3 Zrotation Yrotation Xrotation
					JOINT LeftToe
					{
						OFFSET 0.12848 -0.35301 1.68223
						CHANNELS 3 Zrotation Yrotation Xrotation
						End Site
						{
							OFFSET 0.00000 -0.00000 0.87311
						}
					}
				}
			}
		}
	}
	JOINT RHipJoint
	{
		OFFSET 0 0 0
		CHANNELS 3 Zrotation Yrotation Xrotation
		JOINT RightHip
		{
			OFFSET -1.31183 -1.83292 1.03970
			CHANNELS 3 Zrotation Yrotation Xrotation
			JOINT RightKnee
			{
				OFFSET -2.44740 -6.72417 0.00000
				CHANNELS 3 Zrotation Yrotation Xrotation
				JOINT RightAnkle
				{
					OFFSET -2.67343 -7.34519 0.00000
					CHANNELS 3 Zrotation Yrotation Xrotation
					JOINT RightToe
					{
						OFFSET -0.16914 -0.46471 1.77626
						CHANNELS 3 Zrotation Yrotation Xrotation
						End Site
						{
							OFFSET -0.00000 -0.00000 0.92777
						}
					}
				}
			}
		}
	}
	JOINT lowerback
	{
		OFFSET 0 0 0
		CHANNELS 3 Zrotation Yrotation Xrotation
		JOINT Chest
		{
			OFFSET 0.01249 2.14252 0.03842
			CHANNELS 3 Zrotation Yrotation Xrotation
			JOINT Chest2
			{
				OFFSET -0.02957 2.14199 -0.03751
				CHANNELS 3 Zrotation Yrotation Xrotation
				JOINT lowerneck
				{
					OFFSET 0 0 0
					CHANNELS 3 Zrotation Yrotation Xrotation
					JOINT Neck
					{
						OFFSET -0.01678 1.65709 -0.05476
						CHANNELS 3 Zrotation Yrotation Xrotation
						JOINT Head
						{
							OFFSET 0.07912 1.58331 -0.11843
							CHANNELS 3 Zrotation Yrotation Xrotation
							End Site
							{
								OFFSET 0.03298 1.73940 -0.04271
							}
						}
					}
				}
				JOINT LeftCollar
				{
					OFFSET 0 0 0
					CHANNELS 3 Zrotation Yrotation Xrotation
					JOINT LeftShoulder
					{
						OFFSET 3.39556 1.16496 0.08673
CHANNELS 3 Zrotation Xrotation Yrotation
						JOINT LeftElbow
						{
OFFSET 0 -5.239100 -0.000000
CHANNELS 3 Zrotation Xrotation Yrotation
							JOINT LeftWrist
							{
OFFSET 0 -3.314670 0.000000
CHANNELS 3 Zrotation Xrotation Yrotation
								JOINT lhand
								{
									OFFSET 0 0 0
CHANNELS 3 Zrotation Xrotation Yrotation
									JOINT LFingers
									{
OFFSET 0 -0.965900 0.000000
CHANNELS 3 Zrotation Xrotation Yrotation
										End Site
										{
OFFSET 0 -0.778730 0.000000
										}
									}
								}
								JOINT LThumb
								{
OFFSET 0 0.000000 0.000000
CHANNELS 3 Zrotation Xrotation Yrotation
									End Site
									{
OFFSET 0 -0.790620 0.790620
									}
								}
							}
						}
					}
				}
				JOINT RightCollar
				{
					OFFSET 0 0 0
					CHANNELS 3 Zrotation Yrotation Xrotation
					JOINT RightShoulder
					{
						OFFSET -3.27193 1.31331 0.33940
CHANNELS 3 Zrotation Xrotation Yrotation
						JOINT RightElbow
						{
OFFSET 0 -5.302520 0.000000
CHANNELS 3 Zrotation Xrotation Yrotation
							JOINT RightWrist
							{
OFFSET 0 -3.678750 0.000000
CHANNELS 3 Zrotation Xrotation Yrotation
								JOINT rhand
								{
									OFFSET 0 0 0
CHANNELS 3 Zrotation Xrotation Yrotation
									JOINT RFingers
									{
OFFSET 0 -0.594810 0.000000
CHANNELS 3 Zrotation Xrotation Yrotation
										End Site
										{
OFFSET 0 -0.479550 0.000000
										}
									}
								}
								JOINT RThumb
								{
OFFSET 0 0.000000 0.000000
CHANNELS 3 Zrotation Xrotation Yrotation
									End Site
									{
OFFSET 0 -0.486870 0.486870
									}
								}
							}
						}
					}
				}
			}
		}
	}
}
MOTION
Frames: 11
Frame Time: 0.008333333333333333
10.955955 5.107693 10.931399 -0.485299 -0.536292 -99.343374 0.000000 0.000000 0.000000 -2.475896 -3.912790 4.140062 1.406691 7.502117 21.211784 -0.012501 10.358704 -14.545210 5.936936 14.365680 44.725684 0.000000 0.000000 0.000000 1.955708 -3.523927 14.935599 0.000000 0.000000 0.000000 -1.605156 -12.446513 -31.235881 -6.397478 -14.801124 46.553962 -2.717945 0.312978 16.068369 -1.884719 -0.282040 -0.321773 -0.427242 -0.057894 -9.394061 -2.450364 3.156013 2.627257 11.813088 4.430548 -1.771334 4.233442 2.085721 -1.404627 0.000000 0.000000 0.000000 44.934521 1.312479 47.064156 116.998917 -57.057316 83.150635 27.768157 -47.570810 12.643221 0.000000 0.000000 0.000000 -7.125000 0.000000 0.000000 0.335823 15.752822 0.233526 0.000000 0.000000 0.000000 -30.570422 16.607512 5.772053 -136.102248 -50.216669 -98.611632 -35.084104 4.191365 31.864428 0.000000 0.000000 0.000000 7.125000 0.000000 0.000000 -4.673578 67.145641 2.495570
10.953137 5.103250 10.946201 -0.586155 -0.547557 -99.472001 0.000000 0.000000 0.000000 -2.325237 -3.672977 4.073810 1.416491 7.527043 21.286482 -0.029907 10.411337 -14.339999 5.715373 14.140481 43.816462 0.000000 0.000000 0.000000 1.923515 -3.650809 15.136008 0.000000 0.000000 0.000000 -1.851515 -11.231299 -31.839991 -6.790960 -15.146674 48.067542 -2.588421 0.345014 16.275816 -1.961261 -0.229510 -0.305590 -0.597699 -0.040224 -9.495308 -2.321601 3.080377 2.492880 11.791062 4.312868 -1.564522 4.204469 2.037841 -1.298663 0.000000 0.000000 0.000000 45.470236 0.909166 48.281662 116.352598 -57.204667 82.607663 29.512192 -48.321497 12.366451 0.000000 0.000000 0.000000 -7.125000 0.000000 0.000000 1.561088 15.841400 1.073108 0.000000 0.000000 0.000000 -30.408457 16.861005 4.593258 -136.404171 -50.061169 -98.843289 -35.372343 3.914072 32.253303 0.000000 0.000000 0.000000 7.125000 0.000000 0.000000 -4.938882 67.654995 2.694085
10.949711 5.099734 10.959706 -0.683713 -0.570031 -99.631606 0.000000 0.000000 0.000000 -2.151352 -3.350590 4.011827 1.426947 7.553575 21.366038 -0.068994 10.536699 -13.881539 5.369587 13.787204 42.393857 0.000000 0.000000 0.000000 1.942210 -3.786215 15.370417 0.000000 0.000000 0.000000 -2.054958 -10.225265 -32.338754 -7.105262 -15.419576 49.270858 -2.415206 0.398339 16.508597 -2.059153 -0.142298 -0.275132 -0.824727 -0.008666 -9.595438 -2.170670 2.960513 2.477871 11.731558 4.151610 -1.522839 4.157942 1.959071 -1.263294 0.000000 0.000000 0.000000 46.104114 0.354463 49.413800 115.519694 -57.387012 81.906472 30.875507 -48.437124 11.796782 0.000000 0.000000 0.000000 -7.125000 0.000000 0.000000 2.550868 16.310227 1.736259 0.000000 0.000000 0.000000 -30.194218 17.176957 3.358643 -136.701451 -49.907042 -99.071089 -35.584148 3.575682 32.686755 0.000000 0.000000 0.000000 7.125000 0.000000 0.000000 -5.075183 68.189535 2.829118
10.946955 5.098487 10.954589 -0.737578 -0.623043 -99.708828 0.000000 0.000000 0.000000 -1.959772 -2.942107 3.890778 1.436526 7.577784 21.438733 -0.070372 10.444059 -13.714694 5.147762 13.546746 41.454200 0.000000 0.000000 0.000000 1.986234 -3.850381 15.441144 0.000000 0.000000 0.000000 -2.004701 -10.677051 -32.350236 -6.971747 -15.307647 48.766782 -2.224348 0.467294 16.641456 -2.145954 -0.024857 -0.252825 -1.057378 0.036408 -9.646614 -1.974498 2.807119 2.670959 11.591942 3.970593 -1.734495 4.072518 1.855540 -1.343272 0.000000 0.000000 0.000000 46.868660 -0.518732 50.542740 114.042171 -57.694916 80.659501 30.244870 -46.634113 10.607875 0.000000 0.000000 0.000000 -7.125000 0.000000 0.000000 2.226496 17.750418 1.446462 0.000000 0.000000 0.000000 -30.014645 17.484140 2.126040 -136.938891 -49.782318 -99.252564 -35.729407 3.137215 33.155337 0.000000 0.000000 0.000000 7.125000 0.000000 0.000000 -5.093816 68.741769 2.903126
10.945014 5.097240 10.947480 -0.755567 -0.702975 -99.706152 0.000000 0.000000 0.000000 -1.775206 -2.694368 3.757287 1.447644 7.605749 21.522829 -0.032073 10.183480 -13.972763 5.041666 13.430387 41.002026 0.000000 0.000000 0.000000 2.073690 -3.876543 15.416229 0.000000 0.000000 0.000000 -1.933045 -11.178015 -32.278381 -6.829139 -15.185583 48.223933 -2.031003 0.530866 16.687631 -2.201176 0.091814 -0.253772 -1.256549 0.081753 -9.672996 -1.790904 2.660556 2.965706 11.424501 3.807131 -2.027179 3.979720 1.755537 -1.469668 0.000000 0.000000 0.000000 47.346100 -1.463590 51.960913 112.445933 -58.000378 79.307387 29.025724 -42.922747 9.205381 0.000000 0.000000 0.000000 -7.125000 0.000000 0.000000 1.472505 19.467490 0.920185 0.000000 0.000000 0.000000 -29.911124 17.776755 1.001882 -137.107699 -49.693065 -99.381423 -36.088751 2.814522 33.503756 0.000000 0.000000 0.000000 7.125000 0.000000 0.000000 -5.504697 69.231433 3.202031
10.943591 5.095788 10.939509 -0.754051 -0.789968 -99.680140 0.000000 0.000000 0.000000 -1.600328 -2.504529 3.638672 1.457066 7.629415 21.594045 0.022678 9.853841 -14.405378 4.963970 13.342246 40.664984 0.000000 0.000000 0.000000 2.174513 -3.882114 15.362148 0.000000 0.000000 0.000000 -1.849379 -11.701639 -32.157649 -6.684183 -15.059857 47.669217 -1.851425 0.589160 16.711841 -2.236094 0.201379 -0.264374 -1.424231 0.124844 -9.697007 -1.612125 2.524252 3.301477 11.233965 3.660079 -2.346912 3.879794 1.662060 -1.613489 0.000000 0.000000 0.000000 47.658902 -2.376502 53.438347 110.923930 -58.278512 78.015802 27.585481 -38.578596 7.815930 0.000000 0.000000 0.000000 -7.125000 0.000000 0.000000 0.541621 21.173784 0.313829 0.000000 0.000000 0.000000 -29.858921 18.044907 -0.049126 -137.233782 -49.626029 -99.477556 -36.562455 2.595102 33.807010 0.000000 0.000000 0.000000 7.125000 0.000000 0.000000 -6.122906 69.708837 3.626468
10.942935 5.093294 10.931701 -0.735615 -0.851444 -99.717865 0.000000 0.000000 0.000000 -1.458415 -2.241698 3.623385 1.454442 7.622854 21.574362 0.070311 9.557221 -14.753501 4.766682 13.114581 39.801500 0.000000 0.000000 0.000000 2.244125 -3.870108 15.378156 0.000000 0.000000 0.000000 -1.753720 -12.227892 -31.979585 -6.548044 -14.938677 47.142702 -1.746974 0.633052 16.822131 -2.240293 0.276830 -0.270870 -1.509064 0.155942 -9.765372 -1.429074 2.424197 3.613318 10.990095 3.555957 -2.619059 3.760647 1.593498 -1.739787 0.000000 0.000000 0.000000 47.793139 -2.965412 54.557774 110.046208 -58.424296 77.268512 26.366459 -35.376532 6.977508 0.000000 0.000000 0.000000 -7.125000 0.000000 0.000000 -0.305920 22.196700 -0.159412 0.000000 0.000000 0.000000 -29.892907 18.222709 -0.977367 -137.300178 -49.590535 -99.528075 -37.126892 2.633812 34.155330 0.000000 0.000000 0.000000 7.125000 0.000000 0.000000 -6.896243 70.266517 4.173453
10.942826 5.090212 10.928563 -0.710784 -0.910858 -99.810281 0.000000 0.000000 0.000000 -1.309266 -1.929435 3.647728 1.452280 7.617471 21.558129 0.128208 9.109401 -15.064392 4.608562 12.927893 39.100869 0.000000 0.000000 0.000000 2.307636 -3.856713 15.458574 0.000000 0.000000 0.000000 -1.685365 -12.586411 -31.842161 -6.466175 -14.865246 46.824981 -1.621489 0.685569 17.018033 -2.248784 0.365238 -0.282666 -1.616026 0.191837 -9.887503 -1.340598 2.363563 3.747708 10.917493 3.485996 -2.695160 3.719541 1.552409 -1.779715 0.000000 0.000000 0.000000 47.955983 -3.466773 55.315187 109.305382 -58.542692 76.637040 25.235111 -32.979522 6.499080 0.000000 0.000000 0.000000 -7.125000 0.000000 0.000000 -1.115346 22.799755 -0.592391 0.000000 0.000000 0.000000 -29.928407 18.405348 -1.907123 -137.335527 -49.571616 -99.554993 -37.713837 2.806935 34.621489 0.000000 0.000000 0.000000 7.125000 0.000000 0.000000 -7.691205 70.959704 4.777948
10.943169 5.086862 10.928768 -0.679165 -0.968766 -99.925819 0.000000 0.000000 0.000000 -1.158388 -1.603190 3.689952 1.450869 7.613960 21.547497 0.196411 8.541894 -15.381590 4.500587 12.798129 38.617808 0.000000 0.000000 0.000000 2.368187 -3.838763 15.566937 0.000000 0.000000 0.000000 -1.636787 -12.823840 -31.733359 -6.422950 -14.826043 46.656378 -1.501966 0.737851 17.246017 -2.251780 0.451881 -0.294648 -1.714028 0.227206 -10.027974 -1.315236 2.346303 3.724437 10.968856 3.458033 -2.606230 3.733427 1.541503 -1.745353 0.000000 0.000000 0.000000 48.092328 -3.862844 55.847629 108.711290 -58.634844 76.130195 24.160898 -31.155545 6.274106 0.000000 0.000000 0.000000 -7.125000 0.000000 0.000000 -1.898938 23.109794 -1.002167 0.000000 0.000000 0.000000 -29.987309 18.563517 -2.805172 -137.341524 -49.568383 -99.559582 -38.331790 3.057455 35.139942 0.000000 0.000000 0.000000 7.125000 0.000000 0.000000 -8.546684 71.720279 5.449732
10.944612 5.083975 10.934476 -0.623331 -1.024009 -99.984933 0.000000 0.000000 0.000000 -1.025004 -1.380118 3.699793 1.453165 7.619603 21.564555 0.299024 7.709705 -15.903513 4.605562 12.924821 39.088621 0.000000 0.000000 0.000000 2.432157 -3.792312 15.614241 0.000000 0.000000 0.000000 -1.622157 -12.855792 -31.668930 -6.442174 -14.843495 46.731369 -1.516204 0.751957 17.354666 -2.195225 0.470514 -0.285659 -1.651043 0.238359 -10.079871 -1.366805 2.489856 3.260841 11.232474 3.602702 -2.099857 3.832759 1.642345 -1.515130 0.000000 0.000000 0.000000 47.908032 -3.834173 56.210973 108.646271 -58.644620 76.074624 23.147628 -30.256304 6.441606 0.000000 0.000000 0.000000 -7.125000 0.000000 0.000000 -2.648525 22.981594 -1.406845 0.000000 0.000000 0.000000 -30.216351 18.516672 -3.457657 -137.257151 -49.613523 -99.495350 -39.088660 3.324485 35.555511 0.000000 0.000000 0.000000 7.125000 0.000000 0.000000 -9.767412 72.417247 6.386371
10.946211 5.082022 10.936917 -0.559835 -1.056263 -100.021836 0.000000 0.000000 0.000000 -0.941021 -1.211115 3.709246 1.455267 7.624856 21.580369 0.382460 7.064733 -16.362031 4.613408 12.934546 39.124318 0.000000 0.000000 0.000000 2.474732 -3.732440 15.637545 0.000000 0.000000 0.000000 -1.610249 -12.867050 -31.604580 -6.450350 -14.850950 46.763339 -1.492398 0.791386 17.425740 -2.175390 0.528590 -0.277254 -1.659280 0.265539 -10.109791 -1.323929 2.478711 3.452602 11.168454 3.616400 -2.377904 3.802250 1.634194 -1.639346 0.000000 0.000000 0.000000 47.836579 -3.934216 56.326965 108.560169 -58.657469 76.001082 22.150811 -29.737136 6.850081 0.000000 0.000000 0.000000 -7.125000 0.000000 0.000000 -3.385042 22.595498 -1.833073 0.000000 0.000000 0.000000 -30.384090 18.541477 -4.201281 -137.196816 -49.645709 -99.449401 -39.718955 3.387417 35.881693 0.000000 0.000000 0.000000 7.125000 0.000000 0.000000 -10.833675 72.976788 7.215807
